<?xml version="1.0" encoding="UTF-8" standalone="no"?>
<svg
   width="144"
   height="144"
   version="1.1"
   id="svg1"
   xmlns="http://www.w3.org/2000/svg"
   xmlns:svg="http://www.w3.org/2000/svg">
  <defs
     id="defs1" />
  <!-- Base/Stand -->
  <!-- Main LED panel body -->
  <!-- Inner LED area (off) -->
  <!-- LED grid pattern (off) -->
  <!-- Brand logo area -->
  <!-- Power indicator (off) -->
  <!-- Connection point -->
  <rect
     fill="#ffffff"
     height="14.99244"
     id="svg_1"
     rx="2.5074"
     width="30.0888"
     x="57.031193"
     y="119.56284"
     style="fill:#000000;stroke-width:1.25153;stroke:#000000" />
  <rect
     fill="#ffffff"
     height="9.9949598"
     id="svg_2"
     rx="3.7611001"
     width="35.1036"
     x="54.523792"
     y="132.05655"
     style="fill:#000000;stroke-width:1.25153;stroke:#000000" />
  <rect
     fill="#ffffff"
     height="4.9974799"
     id="svg_3"
     width="20.0592"
     x="62.045994"
     y="125.80969"
     style="fill:#000000;stroke-width:1.25153;stroke:#000000" />
  <rect
     fill="#ff0000"
     fill-opacity="0.01"
     height="99.9496"
     id="svg_4"
     rx="22.566601"
     ry="22.488661"
     stroke="#ffffff"
     stroke-width="10.0123"
     width="100.296"
     x="21.927593"
     y="7.1195455"
     style="fill:#000000;stroke:#000000" />
  <rect
     fill="#ffffff"
     height="12.4937"
     id="svg_21"
     width="5.0148001"
     x="69.568192"
     y="107.06915"
     style="fill:#000000;stroke-width:1.25153;stroke:#000000" />
  <text
     fill="#ffffff"
     font-family="Arial, sans-serif"
     font-size="47.0702px"
     id="svg_22"
     stroke="#ffffff"
     text-anchor="middle"
     transform="scale(1.0017314,0.99827162)"
     x="74.51667"
     xml:space="preserve"
     y="71.285461"
     style="fill:#000000;stroke-width:1.25153;stroke:#000000" />
  <g
     fill-opacity="0"
     id="svg_19"
     transform="matrix(1.09392,0,0,1.09014,-9.1767959,-5.4124)"
     style="fill:#000000;stroke:#000000">
    <path
       d="m 15,4 h 5 m -5,4 h 5 m -3,4 h 3 M 8,16 c -0.55,0 -1,0.45 -1,1 0,0.55 0.45,1 1,1 0.55,0 1,-0.45 1,-1 0,-0.55 -0.45,-1 -1,-1 z m 0,0 V 9 m 0,8 0.01,0.01 M 12,17 c 0,2.21 -1.79,4 -4,4 C 5.79,21 4,19.21 4,17 4,15.99 4.38,15.06 5,14.35 V 6 C 5,4.34 6.34,3 8,3 c 1.66,0 3,1.34 3,3 v 8.35 c 0.62,0.71 1,1.64 1,2.65 z"
       fill="#000000"
       id="svg_20"
       stroke="#ffffff"
       stroke-linecap="round"
       stroke-linejoin="round"
       stroke-width="2"
       transform="matrix(3.28753,0,0,3.27617,34.98303,19.577129)"
       style="fill:#000000;stroke:#000000" />
  </g>
</svg>
